subject01_walk1_RRA_states
nRows=4
nColumns=47

# SIMM Motion File Header:
name subject01_walk1_RRA_states
datacolumns 47
datarows 4
otherdata 1
range 0.99600000000000022000 0.99750000000000016000
endheader
time	pelvis_tx	pelvis_ty	pelvis_tz	pelvis_tilt	pelvis_list	pelvis_rotation	hip_flexion_r	hip_adduction_r	hip_rotation_r	knee_angle_r	ankle_angle_r	subtalar_angle_r	mtp_angle_r	hip_flexion_l	hip_adduction_l	hip_rotation_l	knee_angle_l	ankle_angle_l	subtalar_angle_l	mtp_angle_l	lumbar_extension	lumbar_bending	lumbar_rotation	pelvis_tx_u	pelvis_ty_u	pelvis_tz_u	pelvis_tilt_u	pelvis_list_u	pelvis_rotation_u	hip_flexion_r_u	hip_adduction_r_u	hip_rotation_r_u	knee_angle_r_u	ankle_angle_r_u	subtalar_angle_r_u	mtp_angle_r_u	hip_flexion_l_u	hip_adduction_l_u	hip_rotation_l_u	knee_angle_l_u	ankle_angle_l_u	subtalar_angle_l_u	mtp_angle_l_u	lumbar_extension_u	lumbar_bending_u	lumbar_rotation_u
      0.99600000000000022000	      0.59326833848878879000	      1.04645686662406520000	      0.04800987006799378000	      5.23333666184102600000	      0.03344679451760484300	      0.51740191053452189000	     -2.77867721452591090000	      1.89682443282221610000	     -3.97545226264321940000	    -11.64490728796946000000	      7.82826842178996070000	      0.06912812158131398400	     -0.01192644670486691900	     18.17238402079253500000	     -3.13256116848651840000	     -3.96572360513905810000	    -58.67023602159514400000	      1.61582214908448440000	      0.00919885500353795700	     -0.04809505567674958500	    -16.21824778386725500000	      1.83344490910341660000	      0.52030642978470609000	     -0.12383183759820300000	      0.03726469525792419600	      0.07959271210163894300	      2.67033316764964470000	      2.94395732478736210000	    -18.51514017651950900000	    -91.28511211993081500000	      2.54842196181855970000	     15.42777157507078000000	     53.53511434851622400000	     19.71105732684465700000	      0.15084729977844319000	     -0.41158102435467919000	     54.61628389362757500000	      9.29149335871921700000	    -23.92176819391840300000	    226.05972552167327000000	     10.71607875382711600000	     -0.06519931043167102900	      0.28957023066103665000	    -10.84301051833086200000	    -12.24134532846441400000	     23.27978410114814500000
      0.99650000000000016000	      0.59320640009576509000	      1.04647532248210530000	      0.04804961010252116500	      5.23467525410548800000	      0.03485674750638071600	      0.50817061366998284000	     -2.82431255470382010000	      1.89815577556400530000	     -3.96776864211688270000	    -11.61816390105988500000	      7.83812774911568690000	      0.06920200250923197500	     -0.01213188831834545100	     18.19957919611201500000	     -3.12803650646040410000	     -3.97780249114607280000	    -58.55692740098410100000	      1.62109045584331410000	      0.00916631409440529790	     -0.04795042139887370500	    -16.22367317679483600000	      1.82739167228322440000	      0.53192128882548906000	     -0.12392142757417160000	      0.03655849938769771500	      0.07936749809454715600	      2.68388831559616480000	      2.69574164855292460000	    -18.41008173945543200000	    -91.25625940910852300000	      2.77708351549291430000	     15.30695889251130400000	     53.43860841197636800000	     19.72654039639201100000	      0.14476675197923061000	     -0.41077224662991946000	     54.16452684092365600000	      8.80721440245450180000	    -24.39400749744171300000	    227.17430797091646000000	     10.35712068621255500000	     -0.06497251192493118400	      0.28896358963686847000	    -10.85835616511523000000	    -11.97148536423313600000	     23.17975341748074700000
      0.99700000000000022000	      0.59314441736608536000	      1.04649342489735410000	      0.04808923763267693900	      5.23602040533964800000	      0.03614241431716550000	      0.49899179816755018000	     -2.86993348515217270000	      1.89960165971117930000	     -3.96014506877242310000	    -11.59146850689132800000	      7.84799489322747500000	      0.06927287947301925800	     -0.01233720053213600500	     18.22654865633872500000	     -3.12375390285667590000	     -3.99011784113315700000	    -58.44306216519270700000	      1.62617924166675000000	      0.00913388281214133100	     -0.04780609283383297600	    -16.22910593841636700000	      1.82147355134192820000	      0.54348628324104153000	     -0.12400918826542981000	      0.03585094795712334700	      0.07914268409955764500	      2.69657457434073320000	      2.44679501844554000000	    -18.30520719931092800000	    -91.22747396893200300000	      3.00660543895166740000	     15.18755697987389500000	     53.34313799977059700000	     19.74162068827601500000	      0.13862165680616584000	     -0.40987317801050860000	     53.71342256169445800000	      8.32324319764356350000	    -24.86761719224619300000	    228.28617959253739000000	      9.99799449357684900000	     -0.06474365003926958700	      0.28835245784764535000	    -10.87249214349856700000	    -11.70085995271257900000	     23.08032313956254800000
      0.99750000000000016000	      0.59308239121170103000	      1.04651117319692590000	      0.04812875285360294200	      5.23737168121301090000	      0.03730342358799222000	      0.48986537097378768000	     -2.91554003576696270000	      1.90116252372348550000	     -3.95258083938692770000	    -11.56482059803494900000	      7.85786942171485680000	      0.06934044047470619400	     -0.01254196993504897100	     18.25329273225427700000	     -3.11971320143815460000	     -4.00267032669655090000	    -58.32864167672937600000	      1.63108842020345570000	      0.00910157216142395110	     -0.04766206974172936700	    -16.23454546483768700000	      1.81569093618009640000	      0.55500171484133709000	     -0.12409512341812695000	      0.03514199897871397200	      0.07891827080939529900	      2.70837620964286870000	      2.19713542883045590000	    -18.20054556131537300000	    -91.19873176579311300000	      3.23698170528600130000	     15.06962790594236900000	     53.24866053148915800000	     19.75696570890470500000	      0.13144205194612962000	     -0.41013690534020864000	     53.26300006803101200000	      7.83964416756568830000	    -25.34253612897793000000	    229.39531799475543000000	      9.63868775203371440000	     -0.06450508858415561500	      0.28773654973035279000	    -10.88540368454447100000	    -11.42949199081025400000	     22.98150992950260000000
